
<svg width="41px" height="40px" viewBox="0 0 41 40" version="1.1" xmlns="http://www.w3.org/2000/svg" xmlns:xlink="http://www.w3.org/1999/xlink">
    <g id="Page-1" stroke="none" stroke-width="1" fill="none" fill-rule="evenodd">
        <g id="Desktop-HD-Copy-5" transform="translate(-130.000000, -215.000000)" fill="#5F3C25">
            <g id="Fill-223" transform="translate(130.000000, 215.000000)">
                <path d="M22.9127968,13.0741762 C18.7649655,13.0772472 15.5887095,16.4522966 15.6402701,20.8027015 C15.6843762,24.5935668 18.7606171,27.6516871 22.5556,27.675641 C26.7692798,27.7032802 29.8834146,24.4320312 29.8448995,20.0177492 C29.8107328,16.0702619 26.8158706,13.0711052 22.9127968,13.0741762 M41,18.1155603 C40.9521667,29.282398 35.7395784,36.6344164 27.1966735,39.2527668 C20.0017983,41.4571439 7.58998622,38.9014423 2.59420081,30.0206708 C-4.89761367,16.7041202 4.71936642,0.13781766 20.1428133,0.00146443593 C24.9783261,-0.0415298238 29.567839,0.854593391 33.5709279,3.69344294 C39.1599706,7.65382847 40.9888182,13.3499537 41,18.1155603" id="Fill-222" style="mix-blend-mode: multiply;"></path>
            </g>
        </g>
    </g>
</svg>